# xmcd
#
# Track frame offsets:
#	150
#	14240
#	31195
#	48567
#	62507
#	74620
#	87957
#	101182
#	118800
#	133732
#	148082
#	159082
#	171177
#	185347
#	201795
#	218947
#
# Disc length: 3100 seconds
#
# Revision: 0
# Processed by: cddbd v1.5.2PL0 Copyright (c) Steve Scherf et al.
# Submitted via: audiograbber 1.83.01
#
DISCID=f10c1a10
DTITLE=Deniese Morrison  - Since I Found You
DYEAR=1900
DGENRE=Country
TTITLE0=Since I Found You
TTITLE1=I'm Walkin' 
TTITLE2=Bed Of Nails
TTITLE3=Tracks Of My Tears
TTITLE4=Shine Tonight
TTITLE5=Have You Ever Seen Rain
TTITLE6=Lights On The Hill
TTITLE7=The Ballad Of KP Nutbrown
TTITLE8=End Of The Line
TTITLE9=Heartbreak
TTITLE10=Dance On
TTITLE11=Detour
TTITLE12=On The Move
TTITLE13=Bye Bye Love
TTITLE14=Maybe It's Love
TTITLE15=Honky Tonk Blues
EXTD=
EXTT0=
EXTT1=
EXTT2=
EXTT3=
EXTT4=
EXTT5=
EXTT6=
EXTT7=
EXTT8=
EXTT9=
EXTT10=
EXTT11=
EXTT12=
EXTT13=
EXTT14=
EXTT15=
PLAYORDER=
